<svg id="Capa_1" enable-background="new 0 0 510 510" height="512" viewBox="0 0 510 510" width="512" xmlns="http://www.w3.org/2000/svg">
    <g>
        <path d="m510 299.86v-90h-30v30h-100.543l-31.036-150h71.579v30h30v-90h-30v30h-85.019l-79.981-59.719-79.982 59.72h-85.018v-30h-30v90h30v-30h71.579l-31.034 150h-100.545v-30h-30v90h30v-30h94.338c-2.092 10.108-41.312 199.661-43.451 209.999h-80.887v30h510v-30h-80.886l-43.45-209.999h94.336v30h30zm-276.213-150-68.069 68.068 23.337-112.8zm87.158-44.732 23.338 112.803-68.07-68.07zm2.842 134.732h-137.574l68.787-68.787zm1.676 30-70.461 46.973-70.46-46.973zm-173.461 14.366 75.956 50.636-100.261 66.84zm102.996 68.663 100.461 66.971h-200.919zm27.043-18.03 75.958-50.638 24.307 117.482zm25.097-258.349-52.138 52.137-52.138-52.137 52.138-38.93zm-195.615 403.349 6.21-30h274.537l6.209 30z"/>
    </g>
</svg>